<svg width="23" height="23" viewBox="0 0 23 23" fill="none" xmlns="http://www.w3.org/2000/svg">
<path d="M11.1429 7.71432V11.1429M11.1429 11.1429V14.5715M11.1429 11.1429H14.5715M11.1429 11.1429H7.71432M21.4286 11.1429C21.4286 12.4936 21.1626 13.8311 20.6457 15.0791C20.1287 16.327 19.3711 17.4609 18.416 18.416C17.4609 19.3711 16.327 20.1287 15.0791 20.6457C13.8311 21.1626 12.4936 21.4286 11.1429 21.4286C9.79215 21.4286 8.45464 21.1626 7.20672 20.6457C5.9588 20.1287 4.82491 19.3711 3.86979 18.416C2.91468 17.4609 2.15704 16.327 1.64013 15.0791C1.12323 13.8311 0.857178 12.4936 0.857178 11.1429C0.857178 8.41495 1.94085 5.79874 3.86979 3.86979C5.79874 1.94085 8.41495 0.857178 11.1429 0.857178C13.8708 0.857178 16.487 1.94085 18.416 3.86979C20.3449 5.79874 21.4286 8.41495 21.4286 11.1429Z" stroke="black" stroke-width="1.71429" stroke-linecap="round" stroke-linejoin="round"/>
</svg>
