<svg width="24" height="24" viewBox="0 0 24 24" fill="none" xmlns="http://www.w3.org/2000/svg">
<path d="M7.11111 5.88889V1M16.8889 5.88889V1M5.88889 10.7778H18.1111M3.44444 23H20.5556C21.2039 23 21.8256 22.7425 22.284 22.284C22.7425 21.8256 23 21.2039 23 20.5556V5.88889C23 5.24058 22.7425 4.61883 22.284 4.16041C21.8256 3.70198 21.2039 3.44444 20.5556 3.44444H3.44444C2.79614 3.44444 2.17438 3.70198 1.71596 4.16041C1.25754 4.61883 1 5.24058 1 5.88889V20.5556C1 21.2039 1.25754 21.8256 1.71596 22.284C2.17438 22.7425 2.79614 23 3.44444 23Z" stroke="black" stroke-width="2" stroke-linecap="round" stroke-linejoin="round"/>
</svg>
