<svg width="24" height="30" viewBox="0 0 24 30" fill="none" xmlns="http://www.w3.org/2000/svg">
<path d="M7.28571 4.11111H4.14286C3.30932 4.11111 2.50992 4.43889 1.92052 5.02233C1.33112 5.60578 1 6.3971 1 7.22222V25.8889C1 26.714 1.33112 27.5053 1.92052 28.0888C2.50992 28.6722 3.30932 29 4.14286 29H19.8571C20.6907 29 21.4901 28.6722 22.0795 28.0888C22.6689 27.5053 23 26.714 23 25.8889V7.22222C23 6.3971 22.6689 5.60578 22.0795 5.02233C21.4901 4.43889 20.6907 4.11111 19.8571 4.11111H16.7143M7.28571 4.11111C7.28571 4.93623 7.61684 5.72755 8.20624 6.311C8.79564 6.89445 9.59503 7.22222 10.4286 7.22222H13.5714C14.405 7.22222 15.2044 6.89445 15.7938 6.311C16.3832 5.72755 16.7143 4.93623 16.7143 4.11111M7.28571 4.11111C7.28571 3.28599 7.61684 2.49467 8.20624 1.91122C8.79564 1.32778 9.59503 1 10.4286 1H13.5714C14.405 1 15.2044 1.32778 15.7938 1.91122C16.3832 2.49467 16.7143 3.28599 16.7143 4.11111M12 15H16.7143M12 21.2222H16.7143M7.28571 15H7.30143M7.28571 21.2222H7.30143" stroke="black" stroke-width="2" stroke-linecap="round" stroke-linejoin="round"/>
</svg>
