<svg width="28" height="17" viewBox="0 0 28 17" fill="none" xmlns="http://www.w3.org/2000/svg">
<path fill-rule="evenodd" clip-rule="evenodd" d="M17.4919 3.40418C17.0274 3.40418 16.582 3.22486 16.2535 2.90565C15.9251 2.58645 15.7406 2.15351 15.7406 1.70209C15.7406 1.25067 15.9251 0.817735 16.2535 0.498531C16.582 0.179327 17.0274 0 17.4919 0H26.2487C26.7131 0 27.1586 0.179327 27.487 0.498531C27.8155 0.817735 28 1.25067 28 1.70209V10.2125C28 10.664 27.8155 11.0969 27.487 11.4161C27.1586 11.7353 26.7131 11.9146 26.2487 11.9146C25.7842 11.9146 25.3387 11.7353 25.0103 11.4161C24.6818 11.0969 24.4973 10.664 24.4973 10.2125V5.81094L16.9788 13.118C16.6504 13.4371 16.205 13.6164 15.7406 13.6164C15.2762 13.6164 14.8308 13.4371 14.5024 13.118L10.4865 9.21512L2.96803 16.5222C2.63772 16.8323 2.19532 17.0038 1.73613 16.9999C1.27693 16.9961 0.837671 16.8171 0.512957 16.5015C0.188244 16.1859 0.0040565 15.759 6.62055e-05 15.3127C-0.00392409 14.8664 0.172602 14.4365 0.491623 14.1154L9.24835 5.60499C9.57677 5.28589 10.0222 5.10664 10.4865 5.10664C10.9509 5.10664 11.3963 5.28589 11.7248 5.60499L15.7406 9.50788L22.0209 3.40418H17.4919Z" fill="black"/>
</svg>
