<svg width="29" height="28" viewBox="0 0 29 28" fill="none" xmlns="http://www.w3.org/2000/svg">
<path d="M1.35 1.34961H4.23889L4.81667 4.12739M4.81667 4.12739H27.35L21.5722 15.2385H7.12778M4.81667 4.12739L7.12778 15.2385M7.12778 15.2385L3.81566 18.4232C2.90566 19.2982 3.54989 20.7941 4.83689 20.7941H21.5722M21.5722 20.7941C20.806 20.7941 20.0712 21.0867 19.5295 21.6076C18.9877 22.1286 18.6833 22.8351 18.6833 23.5718C18.6833 24.3085 18.9877 25.0151 19.5295 25.536C20.0712 26.0569 20.806 26.3496 21.5722 26.3496C22.3384 26.3496 23.0732 26.0569 23.615 25.536C24.1567 25.0151 24.4611 24.3085 24.4611 23.5718C24.4611 22.8351 24.1567 22.1286 23.615 21.6076C23.0732 21.0867 22.3384 20.7941 21.5722 20.7941ZM10.0167 23.5718C10.0167 24.3085 9.7123 25.0151 9.17053 25.536C8.62876 26.0569 7.89396 26.3496 7.12778 26.3496C6.3616 26.3496 5.62679 26.0569 5.08502 25.536C4.54325 25.0151 4.23889 24.3085 4.23889 23.5718C4.23889 22.8351 4.54325 22.1286 5.08502 21.6076C5.62679 21.0867 6.3616 20.7941 7.12778 20.7941C7.89396 20.7941 8.62876 21.0867 9.17053 21.6076C9.7123 22.1286 10.0167 22.8351 10.0167 23.5718Z" stroke="#634494" stroke-width="2.7" stroke-linecap="round" stroke-linejoin="round"/>
</svg>
