<svg width="17" height="21" viewBox="0 0 17 21" fill="none" xmlns="http://www.w3.org/2000/svg">
<path d="M12.6429 5.0794C12.6429 6.1992 12.1913 7.27314 11.3876 8.06496C10.5839 8.85678 9.49379 9.30162 8.35715 9.30162C7.2205 9.30162 6.13042 8.85678 5.32669 8.06496C4.52296 7.27314 4.07143 6.1992 4.07143 5.0794C4.07143 3.9596 4.52296 2.88566 5.32669 2.09384C6.13042 1.30202 7.2205 0.857178 8.35715 0.857178C9.49379 0.857178 10.5839 1.30202 11.3876 2.09384C12.1913 2.88566 12.6429 3.9596 12.6429 5.0794ZM8.35715 12.4683C6.36802 12.4683 4.46037 13.2468 3.05385 14.6324C1.64732 16.0181 0.857147 17.8975 0.857147 19.8572H15.8571C15.8571 17.8975 15.067 16.0181 13.6604 14.6324C12.2539 13.2468 10.3463 12.4683 8.35715 12.4683Z" stroke="black" stroke-width="1.71429" stroke-linecap="round" stroke-linejoin="round"/>
</svg>
