<svg width="34" height="28" viewBox="0 0 34 28" fill="none" xmlns="http://www.w3.org/2000/svg">
<path d="M24.75 26.5H32.5V23.375C32.4999 22.4008 32.1988 21.4509 31.6384 20.6572C31.078 19.8636 30.2863 19.2656 29.3733 18.9465C28.4602 18.6274 27.4712 18.6029 26.5438 18.8766C25.6163 19.1502 24.7965 19.7084 24.1982 20.4734M24.75 26.5H9.25M24.75 26.5V23.375C24.75 22.35 24.5547 21.3703 24.1982 20.4734M24.1982 20.4734C23.6226 19.0234 22.6292 17.7804 21.3462 16.9049C20.0632 16.0293 18.5494 15.5614 17 15.5614C15.4506 15.5614 13.9368 16.0293 12.6538 16.9049C11.3708 17.7804 10.3774 19.0234 9.8018 20.4734M9.25 26.5H1.5V23.375C1.50007 22.4008 1.80122 21.4509 2.36159 20.6572C2.92195 19.8636 3.71369 19.2656 4.62674 18.9465C5.53979 18.6274 6.52878 18.6029 7.45624 18.8766C8.3837 19.1502 9.20354 19.7084 9.8018 20.4734M9.25 26.5V23.375C9.25 22.35 9.4453 21.3703 9.8018 20.4734M21.65 6.1875C21.65 7.4307 21.1601 8.62299 20.288 9.50206C19.416 10.3811 18.2333 10.875 17 10.875C15.7667 10.875 14.584 10.3811 13.712 9.50206C12.8399 8.62299 12.35 7.4307 12.35 6.1875C12.35 4.9443 12.8399 3.75201 13.712 2.87294C14.584 1.99386 15.7667 1.5 17 1.5C18.2333 1.5 19.416 1.99386 20.288 2.87294C21.1601 3.75201 21.65 4.9443 21.65 6.1875ZM30.95 10.875C30.95 11.7038 30.6234 12.4987 30.042 13.0847C29.4607 13.6708 28.6722 14 27.85 14C27.0278 14 26.2393 13.6708 25.658 13.0847C25.0766 12.4987 24.75 11.7038 24.75 10.875C24.75 10.0462 25.0766 9.25134 25.658 8.66529C26.2393 8.07924 27.0278 7.75 27.85 7.75C28.6722 7.75 29.4607 8.07924 30.042 8.66529C30.6234 9.25134 30.95 10.0462 30.95 10.875ZM9.25 10.875C9.25 11.7038 8.92339 12.4987 8.34203 13.0847C7.76067 13.6708 6.97217 14 6.15 14C5.32783 14 4.53933 13.6708 3.95797 13.0847C3.37661 12.4987 3.05 11.7038 3.05 10.875C3.05 10.0462 3.37661 9.25134 3.95797 8.66529C4.53933 8.07924 5.32783 7.75 6.15 7.75C6.97217 7.75 7.76067 8.07924 8.34203 8.66529C8.92339 9.25134 9.25 10.0462 9.25 10.875Z" stroke="#634494" stroke-width="3" stroke-linecap="round" stroke-linejoin="round"/>
</svg>
