<svg width="33" height="27" viewBox="0 0 33 27" fill="none" xmlns="http://www.w3.org/2000/svg">
<path d="M24.25 26H32V22.875C31.9999 21.9008 31.6988 20.9509 31.1384 20.1572C30.578 19.3636 29.7863 18.7656 28.8733 18.4465C27.9602 18.1274 26.9712 18.1029 26.0438 18.3766C25.1163 18.6502 24.2965 19.2084 23.6982 19.9734M24.25 26H8.75M24.25 26V22.875C24.25 21.85 24.0547 20.8703 23.6982 19.9734M23.6982 19.9734C23.1226 18.5234 22.1292 17.2804 20.8462 16.4049C19.5632 15.5293 18.0494 15.0614 16.5 15.0614C14.9506 15.0614 13.4368 15.5293 12.1538 16.4049C10.8708 17.2804 9.8774 18.5234 9.3018 19.9734M8.75 26H1V22.875C1.00007 21.9008 1.30122 20.9509 1.86159 20.1572C2.42195 19.3636 3.21369 18.7656 4.12674 18.4465C5.03979 18.1274 6.02878 18.1029 6.95624 18.3766C7.8837 18.6502 8.70354 19.2084 9.3018 19.9734M8.75 26V22.875C8.75 21.85 8.9453 20.8703 9.3018 19.9734M21.15 5.6875C21.15 6.9307 20.6601 8.12299 19.788 9.00206C18.916 9.88114 17.7333 10.375 16.5 10.375C15.2667 10.375 14.084 9.88114 13.212 9.00206C12.3399 8.12299 11.85 6.9307 11.85 5.6875C11.85 4.4443 12.3399 3.25201 13.212 2.37294C14.084 1.49386 15.2667 1 16.5 1C17.7333 1 18.916 1.49386 19.788 2.37294C20.6601 3.25201 21.15 4.4443 21.15 5.6875ZM30.45 10.375C30.45 11.2038 30.1234 11.9987 29.542 12.5847C28.9607 13.1708 28.1722 13.5 27.35 13.5C26.5278 13.5 25.7393 13.1708 25.158 12.5847C24.5766 11.9987 24.25 11.2038 24.25 10.375C24.25 9.5462 24.5766 8.75134 25.158 8.16529C25.7393 7.57924 26.5278 7.25 27.35 7.25C28.1722 7.25 28.9607 7.57924 29.542 8.16529C30.1234 8.75134 30.45 9.5462 30.45 10.375ZM8.75 10.375C8.75 11.2038 8.42339 11.9987 7.84203 12.5847C7.26067 13.1708 6.47217 13.5 5.65 13.5C4.82783 13.5 4.03933 13.1708 3.45797 12.5847C2.87661 11.9987 2.55 11.2038 2.55 10.375C2.55 9.5462 2.87661 8.75134 3.45797 8.16529C4.03933 7.57924 4.82783 7.25 5.65 7.25C6.47217 7.25 7.26067 7.57924 7.84203 8.16529C8.42339 8.75134 8.75 9.5462 8.75 10.375Z" stroke="black" stroke-width="2" stroke-linecap="round" stroke-linejoin="round"/>
</svg>
