<svg width="27" height="23" viewBox="0 0 27 23" fill="none" xmlns="http://www.w3.org/2000/svg">
<path d="M11.7311 16.0645L6.39774 11.0645M6.39774 11.0645L11.7311 6.06445M6.39774 11.0645H25.0644M18.3977 16.0645V17.3145C18.3977 18.309 17.9763 19.2628 17.2262 19.9661C16.476 20.6694 15.4586 21.0645 14.3977 21.0645H5.0644C4.00354 21.0645 2.98612 20.6694 2.23598 19.9661C1.48583 19.2628 1.0644 18.309 1.0644 17.3145V4.81445C1.0644 3.81989 1.48583 2.86606 2.23598 2.1628C2.98612 1.45954 4.00354 1.06445 5.0644 1.06445H14.3977C15.4586 1.06445 16.476 1.45954 17.2262 2.1628C17.9763 2.86606 18.3977 3.81989 18.3977 4.81445V6.06445" stroke="black" stroke-width="2.12881" stroke-linecap="round" stroke-linejoin="round"/>
</svg>
