<svg width="20" height="21" viewBox="0 0 20 21" fill="none" xmlns="http://www.w3.org/2000/svg">
<path d="M12.7857 15.6667H18.1429L16.6375 14.1948C16.4353 13.9971 16.275 13.7623 16.1656 13.504C16.0562 13.2457 16 12.9689 16 12.6893V9.38095C16.0002 8.08079 15.5881 6.81255 14.8206 5.75084C14.0531 4.68912 12.9678 3.88615 11.7143 3.45248V3.09524C11.7143 2.53955 11.4885 2.00661 11.0867 1.61368C10.6848 1.22075 10.1397 1 9.57143 1C9.00311 1 8.45806 1.22075 8.0562 1.61368C7.65434 2.00661 7.42857 2.53955 7.42857 3.09524V3.45248C4.93214 4.31571 3.14286 6.64457 3.14286 9.38095V12.6904C3.14286 13.254 2.91357 13.7956 2.50536 14.1948L1 15.6667H6.35714M12.7857 15.6667V16.7143C12.7857 17.5478 12.4471 18.3472 11.8443 18.9366C11.2415 19.526 10.4239 19.8571 9.57143 19.8571C8.71895 19.8571 7.90138 19.526 7.29858 18.9366C6.69579 18.3472 6.35714 17.5478 6.35714 16.7143V15.6667M12.7857 15.6667H6.35714H12.7857Z" fill="white"/>
<path d="M12.7857 15.6667H18.1429L16.6375 14.1948C16.4353 13.9971 16.275 13.7623 16.1656 13.504C16.0562 13.2457 16 12.9689 16 12.6893V9.38095C16.0002 8.08079 15.5881 6.81255 14.8206 5.75084C14.0531 4.68912 12.9678 3.88615 11.7143 3.45248V3.09524C11.7143 2.53955 11.4885 2.00661 11.0867 1.61368C10.6848 1.22075 10.1397 1 9.57143 1C9.00311 1 8.45806 1.22075 8.0562 1.61368C7.65434 2.00661 7.42857 2.53955 7.42857 3.09524V3.45248C4.93214 4.31571 3.14286 6.64457 3.14286 9.38095V12.6904C3.14286 13.254 2.91357 13.7956 2.50536 14.1948L1 15.6667H6.35714M12.7857 15.6667V16.7143C12.7857 17.5478 12.4471 18.3472 11.8443 18.9366C11.2415 19.526 10.4239 19.8571 9.57143 19.8571C8.71895 19.8571 7.90138 19.526 7.29858 18.9366C6.69579 18.3472 6.35714 17.5478 6.35714 16.7143V15.6667M12.7857 15.6667H6.35714" stroke="#634494" stroke-width="2" stroke-linecap="round" stroke-linejoin="round"/>
</svg>
