<svg width="16" height="22" viewBox="0 0 16 22" fill="none" xmlns="http://www.w3.org/2000/svg">
<path d="M4.50926 14.9384H10.9179M2.86492 12.8767C1.90611 11.8919 1.25321 10.6373 0.988776 9.27147C0.724338 7.90564 0.860238 6.48997 1.37929 5.20345C1.89835 3.91693 2.77724 2.81734 3.90486 2.04372C5.03247 1.27009 6.35815 0.857178 7.71429 0.857178C9.07043 0.857178 10.3961 1.27009 11.5237 2.04372C12.6513 2.81734 13.5302 3.91693 14.0493 5.20345C14.5683 6.48997 14.7042 7.90564 14.4398 9.27147C14.1754 10.6373 13.5225 11.8919 12.5637 12.8767L11.8121 13.6471C11.3825 14.0883 11.0417 14.6122 10.8092 15.1887C10.5767 15.7653 10.4571 16.3832 10.4571 17.0072V17.7549C10.4571 18.5019 10.1682 19.2183 9.65378 19.7465C9.1394 20.2747 8.44174 20.5715 7.71429 20.5715C6.98684 20.5715 6.28918 20.2747 5.7748 19.7465C5.26041 19.2183 4.97143 18.5019 4.97143 17.7549V17.0072C4.97143 15.7468 4.48321 14.5371 3.61646 13.6471L2.86492 12.8767Z" stroke="black" stroke-width="1.71429" stroke-linecap="round" stroke-linejoin="round"/>
</svg>
