<svg width="18" height="20" viewBox="0 0 18 20" fill="none" xmlns="http://www.w3.org/2000/svg">
<path d="M4.75 4.75V12.75C4.75 13.2804 4.96071 13.7891 5.33579 14.1642C5.71086 14.5393 6.21957 14.75 6.75 14.75H12.75M4.75 4.75V2.75C4.75 2.21957 4.96071 1.71086 5.33579 1.33579C5.71086 0.960714 6.21957 0.75 6.75 0.75H11.336C11.6012 0.750057 11.8555 0.855451 12.043 1.043L16.457 5.457C16.6446 5.64449 16.7499 5.8988 16.75 6.164V12.75C16.75 13.2804 16.5393 13.7891 16.1642 14.1642C15.7891 14.5393 15.2804 14.75 14.75 14.75H12.75M4.75 4.75H2.75C2.21957 4.75 1.71086 4.96071 1.33579 5.33579C0.960714 5.71086 0.75 6.21957 0.75 6.75V16.75C0.75 17.2804 0.960714 17.7891 1.33579 18.1642C1.71086 18.5393 2.21957 18.75 2.75 18.75H10.75C11.2804 18.75 11.7891 18.5393 12.1642 18.1642C12.5393 17.7891 12.75 17.2804 12.75 16.75V14.75" stroke="black" stroke-width="1.5" stroke-linecap="round" stroke-linejoin="round"/>
</svg>
