<svg width="30" height="30" viewBox="0 0 30 30" fill="none" xmlns="http://www.w3.org/2000/svg">
<path d="M14.543 1.14258C14.6147 1.11098 14.6968 1.11023 14.7686 1.1416L26.2939 6.2041C26.5171 6.3021 26.517 6.61865 26.2939 6.7168L14.7939 11.7773C14.7222 11.8089 14.6402 11.8089 14.5684 11.7773L3.06348 6.71484C2.84068 6.61681 2.83998 6.30053 3.0625 6.20215L14.543 1.14258Z" stroke="#634494" stroke-width="2"/>
<path d="M2.17664 10.2097C2.17658 10.006 2.38673 9.87055 2.57214 9.95483L12.9305 14.6628C13.0304 14.7082 13.0954 14.8081 13.0956 14.9177L13.0985 27.3738C13.0986 27.5774 12.8884 27.7127 12.703 27.6287L2.34363 22.9197C2.24395 22.8743 2.17978 22.7753 2.17957 22.6658L2.17664 10.2097Z" stroke="#634494" stroke-width="2"/>
<mask id="path-3-inside-1_814_22" fill="white">
<path fill-rule="evenodd" clip-rule="evenodd" d="M26.4543 9.04193C27.3017 8.65866 28.2622 9.27888 28.262 10.2089L28.259 22.6669C28.2589 23.1696 27.964 23.6258 27.5061 23.8329L17.0872 28.5468C16.2399 28.9302 15.2795 28.3108 15.2795 27.3808V14.9228C15.2795 14.4201 15.5735 13.964 16.0315 13.7568L26.4543 9.04193Z"/>
</mask>
<path d="M26.4543 9.04193L25.6301 7.21966L25.63 7.2197L26.4543 9.04193ZM28.262 10.2089L26.262 10.2084V10.2085L28.262 10.2089ZM28.259 22.6669L30.259 22.6675V22.6674L28.259 22.6669ZM27.5061 23.8329L28.3305 25.6551L28.3305 25.6551L27.5061 23.8329ZM17.0872 28.5468L16.2627 26.7246L16.2627 26.7246L17.0872 28.5468ZM16.0315 13.7568L15.2072 11.9345L15.2069 11.9347L16.0315 13.7568ZM26.4543 9.04193L27.2786 10.8642C26.8012 11.0801 26.2618 10.7308 26.262 10.2084L28.262 10.2089L30.262 10.2095C30.2626 7.82701 27.8023 6.23719 25.6301 7.21966L26.4543 9.04193ZM28.262 10.2089L26.262 10.2085L26.259 22.6665L28.259 22.6669L30.259 22.6674L30.262 10.2094L28.262 10.2089ZM28.259 22.6669L26.259 22.6664C26.2591 22.3824 26.4252 22.1268 26.6817 22.0108L27.5061 23.8329L28.3305 25.6551C29.5028 25.1247 30.2587 23.9567 30.259 22.6675L28.259 22.6669ZM27.5061 23.8329L26.6817 22.0108L16.2627 26.7246L17.0872 28.5468L17.9116 30.369L28.3305 25.6551L27.5061 23.8329ZM17.0872 28.5468L16.2627 26.7246C16.739 26.5092 17.2795 26.8573 17.2795 27.3808H15.2795H13.2795C13.2795 29.7642 15.7408 31.3512 17.9116 30.369L17.0872 28.5468ZM15.2795 27.3808H17.2795V14.9228H15.2795H13.2795V27.3808H15.2795ZM15.2795 14.9228H17.2795C17.2795 15.205 17.1143 15.462 16.8561 15.5789L16.0315 13.7568L15.2069 11.9347C14.0328 12.466 13.2795 13.6352 13.2795 14.9228H15.2795ZM16.0315 13.7568L16.8558 15.579L27.2786 10.8642L26.4543 9.04193L25.63 7.2197L15.2072 11.9345L16.0315 13.7568Z" fill="#634494" mask="url(#path-3-inside-1_814_22)"/>
</svg>
