<svg width="16" height="16" viewBox="0 0 16 16" fill="none" xmlns="http://www.w3.org/2000/svg">
<path fill-rule="evenodd" clip-rule="evenodd" d="M6.00461 2.00221C4.94293 2.00221 3.92473 2.42394 3.17401 3.17462C2.42329 3.92531 2.00154 4.94346 2.00154 6.00509C2.00154 7.06672 2.42329 8.08487 3.17401 8.83556C3.92473 9.58624 4.94293 10.008 6.00461 10.008C7.06629 10.008 8.08449 9.58624 8.83521 8.83556C9.58593 8.08487 10.0077 7.06672 10.0077 6.00509C10.0077 4.94346 9.58593 3.92531 8.83521 3.17462C8.08449 2.42394 7.06629 2.00221 6.00461 2.00221ZM1.13549e-07 6.00509C-0.000120482 5.06011 0.222814 4.12845 0.650671 3.28587C1.07853 2.4433 1.69923 1.7136 2.46229 1.15612C3.22535 0.598651 4.10922 0.229143 5.04202 0.0776552C5.97482 -0.073833 6.9302 -0.00302467 7.83048 0.284321C8.73075 0.571667 9.55049 1.06744 10.223 1.73131C10.8955 2.39518 11.4019 3.20841 11.7008 4.10485C11.9998 5.0013 12.0829 5.95565 11.9435 6.89028C11.8041 7.82491 11.446 8.71344 10.8984 9.4836L15.7191 14.3041C15.9014 14.4928 16.0022 14.7456 16 15.008C15.9977 15.2704 15.8924 15.5214 15.7069 15.7069C15.5213 15.8924 15.2703 15.9977 15.0079 16C14.7455 16.0022 14.4927 15.9014 14.304 15.7191L9.48428 10.8996C8.58596 11.5384 7.52913 11.9175 6.42961 11.9955C5.3301 12.0735 4.23032 11.8474 3.2508 11.3419C2.27127 10.8364 1.4498 10.071 0.876396 9.12969C0.302993 8.18834 -0.000214215 7.10732 1.13549e-07 6.00509Z" fill="#634494"/>
</svg>
