<svg width="25" height="23" viewBox="0 0 25 23" fill="none" xmlns="http://www.w3.org/2000/svg">
<path fill-rule="evenodd" clip-rule="evenodd" d="M9.62673 1.68534C10.8878 -0.561782 14.1138 -0.561782 15.3732 1.68534L24.5716 18.0761C25.808 20.2803 24.2205 23 21.7 23H3.30162C0.779482 23 -0.80798 20.2803 0.428361 18.0761L9.62673 1.68534ZM14.1484 18.0448C14.1484 18.483 13.9748 18.9032 13.6656 19.2131C13.3565 19.523 12.9372 19.6971 12.5 19.6971C12.0628 19.6971 11.6435 19.523 11.3344 19.2131C11.0252 18.9032 10.8515 18.483 10.8515 18.0448C10.8515 17.6065 11.0252 17.1863 11.3344 16.8764C11.6435 16.5665 12.0628 16.3925 12.5 16.3925C12.9372 16.3925 13.3565 16.5665 13.6656 16.8764C13.9748 17.1863 14.1484 17.6065 14.1484 18.0448ZM12.5 4.82636C12.0628 4.82636 11.6435 5.00045 11.3344 5.31031C11.0252 5.62018 10.8515 6.04045 10.8515 6.47866V11.4356C10.8515 11.8738 11.0252 12.294 11.3344 12.6039C11.6435 12.9138 12.0628 13.0879 12.5 13.0879C12.9372 13.0879 13.3565 12.9138 13.6656 12.6039C13.9748 12.294 14.1484 11.8738 14.1484 11.4356V6.47866C14.1484 6.04045 13.9748 5.62018 13.6656 5.31031C13.3565 5.00045 12.9372 4.82636 12.5 4.82636Z" fill="#FF0000"/>
</svg>
