<svg width="26" height="27" viewBox="0 0 26 27" fill="none" xmlns="http://www.w3.org/2000/svg">
<path d="M9.40911 24.4643V20.6308C9.40909 19.6558 10.2124 18.8635 11.2076 18.857H14.8532C15.8531 18.857 16.6638 19.6512 16.6638 20.6308V24.4762C16.6636 25.304 17.338 25.9806 18.1828 26H20.6132C23.0359 26 25 24.0758 25 21.7023V10.7973C24.9871 9.86353 24.5395 8.98669 23.7848 8.41629L15.4729 1.85663C14.0168 0.714458 11.9468 0.714458 10.4906 1.85663L2.21519 8.4282C1.45759 8.99628 1.00933 9.87458 1 10.8092V21.7023C1 24.0758 2.96405 26 5.38684 26H7.81722C8.68297 26 9.38481 25.3124 9.38481 24.4643" stroke="black" stroke-width="2" stroke-linecap="round" stroke-linejoin="round"/>
</svg>
