<svg width="18" height="18" viewBox="0 0 18 18" fill="none" xmlns="http://www.w3.org/2000/svg">
<path d="M0.75 0.751881V5.75188H1.332M1.332 5.75188C1.99585 4.11001 3.18568 2.73479 4.71503 1.84174C6.24438 0.948694 8.0268 0.588294 9.78297 0.817021C11.5391 1.04575 13.1698 1.85068 14.4194 3.10566C15.669 4.36064 16.4668 5.99474 16.688 7.75188M1.332 5.75188H5.75M16.75 16.7519V11.7519H16.169M16.169 11.7519C15.5042 13.3928 14.314 14.7669 12.7848 15.6592C11.2556 16.5514 9.47374 16.9114 7.7181 16.6828C5.96246 16.4541 4.3322 15.6498 3.08253 14.3956C1.83287 13.1415 1.03435 11.5083 0.812 9.75188M16.169 11.7519H11.75" stroke="black" stroke-width="1.5" stroke-linecap="round" stroke-linejoin="round"/>
</svg>
