<svg width="29" height="29" viewBox="0 0 29 29" fill="none" xmlns="http://www.w3.org/2000/svg">
<path d="M23.1667 10.1667V14.5M23.1667 14.5V18.8333M23.1667 14.5H27.5M23.1667 14.5H18.8333M15.9444 7.27778C15.9444 8.81014 15.3357 10.2797 14.2522 11.3633C13.1686 12.4468 11.699 13.0556 10.1667 13.0556C8.6343 13.0556 7.1647 12.4468 6.08116 11.3633C4.99762 10.2797 4.38889 8.81014 4.38889 7.27778C4.38889 5.74542 4.99762 4.27582 6.08116 3.19227C7.1647 2.10873 8.6343 1.5 10.1667 1.5C11.699 1.5 13.1686 2.10873 14.2522 3.19227C15.3357 4.27582 15.9444 5.74542 15.9444 7.27778ZM1.5 26.0556C1.5 23.757 2.41309 21.5526 4.03841 19.9273C5.66372 18.302 7.86812 17.3889 10.1667 17.3889C12.4652 17.3889 14.6696 18.302 16.2949 19.9273C17.9202 21.5526 18.8333 23.757 18.8333 26.0556V27.5H1.5V26.0556Z" stroke="black" stroke-width="3" stroke-linecap="round" stroke-linejoin="round"/>
</svg>
