<svg width="19" height="21" viewBox="0 0 19 21" fill="none" xmlns="http://www.w3.org/2000/svg">
<path d="M12.6429 15.5238H18L16.4947 14.0519C16.2925 13.8542 16.1322 13.6195 16.0228 13.3612C15.9134 13.1029 15.8571 12.8261 15.8572 12.5465V9.23813C15.8573 7.93797 15.4453 6.66973 14.6778 5.60801C13.9103 4.5463 12.825 3.74333 11.5715 3.30965V2.95242C11.5715 2.39672 11.3457 1.86379 10.9438 1.47086C10.542 1.07793 9.99693 0.857178 9.42861 0.857178C8.86028 0.857178 8.31524 1.07793 7.91338 1.47086C7.51151 1.86379 7.28575 2.39672 7.28575 2.95242V3.30965C4.78932 4.17289 3.00003 6.50175 3.00003 9.23813V12.5476C3.00003 13.1112 2.77075 13.6528 2.36254 14.0519L0.857178 15.5238H6.21432M12.6429 15.5238V16.5715C12.6429 17.405 12.3042 18.2044 11.7014 18.7938C11.0987 19.3832 10.2811 19.7143 9.42861 19.7143C8.57612 19.7143 7.75856 19.3832 7.15576 18.7938C6.55297 18.2044 6.21432 17.405 6.21432 16.5715V15.5238M12.6429 15.5238H6.21432" stroke="black" stroke-width="1.71429" stroke-linecap="round" stroke-linejoin="round"/>
</svg>
