<svg width="28" height="27" viewBox="0 0 28 27" fill="none" xmlns="http://www.w3.org/2000/svg">
<path d="M1 1H3.88889L4.46667 3.77778M4.46667 3.77778H27L21.2222 14.8889H6.77778M4.46667 3.77778L6.77778 14.8889M6.77778 14.8889L3.46567 18.0736C2.55567 18.9486 3.19989 20.4444 4.48689 20.4444H21.2222M21.2222 20.4444C20.456 20.4444 19.7212 20.7371 19.1795 21.258C18.6377 21.779 18.3333 22.4855 18.3333 23.2222C18.3333 23.9589 18.6377 24.6655 19.1795 25.1864C19.7212 25.7073 20.456 26 21.2222 26C21.9884 26 22.7232 25.7073 23.265 25.1864C23.8067 24.6655 24.1111 23.9589 24.1111 23.2222C24.1111 22.4855 23.8067 21.779 23.265 21.258C22.7232 20.7371 21.9884 20.4444 21.2222 20.4444ZM9.66667 23.2222C9.66667 23.9589 9.3623 24.6655 8.82053 25.1864C8.27876 25.7073 7.54396 26 6.77778 26C6.0116 26 5.2768 25.7073 4.73502 25.1864C4.19325 24.6655 3.88889 23.9589 3.88889 23.2222C3.88889 22.4855 4.19325 21.779 4.73502 21.258C5.2768 20.7371 6.0116 20.4444 6.77778 20.4444C7.54396 20.4444 8.27876 20.7371 8.82053 21.258C9.3623 21.779 9.66667 22.4855 9.66667 23.2222Z" stroke="black" stroke-width="2" stroke-linecap="round" stroke-linejoin="round"/>
</svg>
