<svg width="28" height="28" viewBox="0 0 28 28" fill="none" xmlns="http://www.w3.org/2000/svg">
<path d="M9.66667 24.1111V15.4444C9.66667 14.6783 9.3623 13.9435 8.82053 13.4017C8.27876 12.8599 7.54396 12.5556 6.77778 12.5556H3.88889C3.12271 12.5556 2.38791 12.8599 1.84614 13.4017C1.30436 13.9435 1 14.6783 1 15.4444V24.1111C1 24.8773 1.30436 25.6121 1.84614 26.1539C2.38791 26.6956 3.12271 27 3.88889 27H6.77778C7.54396 27 8.27876 26.6956 8.82053 26.1539C9.3623 25.6121 9.66667 24.8773 9.66667 24.1111ZM9.66667 24.1111V9.66667C9.66667 8.90049 9.97103 8.16569 10.5128 7.62391C11.0546 7.08214 11.7894 6.77778 12.5556 6.77778H15.4444C16.2106 6.77778 16.9454 7.08214 17.4872 7.62391C18.029 8.16569 18.3333 8.90049 18.3333 9.66667V24.1111M9.66667 24.1111C9.66667 24.8773 9.97103 25.6121 10.5128 26.1539C11.0546 26.6956 11.7894 27 12.5556 27H15.4444C16.2106 27 16.9454 26.6956 17.4872 26.1539C18.029 25.6121 18.3333 24.8773 18.3333 24.1111M18.3333 24.1111V3.88889C18.3333 3.12271 18.6377 2.38791 19.1795 1.84614C19.7212 1.30436 20.456 1 21.2222 1H24.1111C24.8773 1 25.6121 1.30436 26.1539 1.84614C26.6956 2.38791 27 3.12271 27 3.88889V24.1111C27 24.8773 26.6956 25.6121 26.1539 26.1539C25.6121 26.6956 24.8773 27 24.1111 27H21.2222C20.456 27 19.7212 26.6956 19.1795 26.1539C18.6377 25.6121 18.3333 24.8773 18.3333 24.1111Z" stroke="black" stroke-width="2" stroke-linecap="round" stroke-linejoin="round"/>
</svg>
