<svg width="29" height="29" viewBox="0 0 29 29" fill="none" xmlns="http://www.w3.org/2000/svg">
<path d="M10.1667 24.6111V15.9444C10.1667 15.1783 9.8623 14.4435 9.32053 13.9017C8.77876 13.3599 8.04396 13.0556 7.27778 13.0556H4.38889C3.62271 13.0556 2.88791 13.3599 2.34614 13.9017C1.80436 14.4435 1.5 15.1783 1.5 15.9444V24.6111C1.5 25.3773 1.80436 26.1121 2.34614 26.6539C2.88791 27.1956 3.62271 27.5 4.38889 27.5H7.27778C8.04396 27.5 8.77876 27.1956 9.32053 26.6539C9.8623 26.1121 10.1667 25.3773 10.1667 24.6111ZM10.1667 24.6111V10.1667C10.1667 9.40049 10.471 8.66568 11.0128 8.12391C11.5546 7.58214 12.2894 7.27778 13.0556 7.27778H15.9444C16.7106 7.27778 17.4454 7.58214 17.9872 8.12391C18.529 8.66568 18.8333 9.40049 18.8333 10.1667V24.6111M10.1667 24.6111C10.1667 25.3773 10.471 26.1121 11.0128 26.6539C11.5546 27.1956 12.2894 27.5 13.0556 27.5H15.9444C16.7106 27.5 17.4454 27.1956 17.9872 26.6539C18.529 26.1121 18.8333 25.3773 18.8333 24.6111M18.8333 24.6111V4.38889C18.8333 3.62271 19.1377 2.88791 19.6795 2.34614C20.2212 1.80436 20.956 1.5 21.7222 1.5H24.6111C25.3773 1.5 26.1121 1.80436 26.6539 2.34614C27.1956 2.88791 27.5 3.62271 27.5 4.38889V24.6111C27.5 25.3773 27.1956 26.1121 26.6539 26.6539C26.1121 27.1956 25.3773 27.5 24.6111 27.5H21.7222C20.956 27.5 20.2212 27.1956 19.6795 26.6539C19.1377 26.1121 18.8333 25.3773 18.8333 24.6111Z" stroke="#634494" stroke-width="3" stroke-linecap="round" stroke-linejoin="round"/>
</svg>
