<svg width="27" height="28" viewBox="0 0 27 28" fill="none" xmlns="http://www.w3.org/2000/svg">
<path d="M9.90911 24.9643V21.1308C9.90909 20.1558 10.7124 19.3635 11.7076 19.357H15.3532C16.3531 19.357 17.1638 20.1512 17.1638 21.1308V24.9762C17.1636 25.804 17.838 26.4806 18.6828 26.5H21.1132C23.5359 26.5 25.5 24.5758 25.5 22.2023V11.2973C25.4871 10.3635 25.0395 9.48669 24.2848 8.91629L15.9729 2.35663C14.5168 1.21446 12.4468 1.21446 10.9906 2.35663L2.71519 8.9282C1.95759 9.49628 1.50933 10.3746 1.5 11.3092V22.2023C1.5 24.5758 3.46405 26.5 5.88684 26.5H8.31722C9.18297 26.5 9.88481 25.8124 9.88481 24.9643" stroke="#634494" stroke-width="3" stroke-linecap="round" stroke-linejoin="round"/>
</svg>
