<svg width="30" height="30" viewBox="0 0 30 30" fill="none" xmlns="http://www.w3.org/2000/svg">
<path d="M14.543 1.14258C14.6147 1.11098 14.6968 1.11023 14.7686 1.1416L26.2939 6.2041C26.5171 6.3021 26.517 6.61865 26.2939 6.7168L14.7939 11.7773C14.7222 11.8089 14.6402 11.8089 14.5684 11.7773L3.06348 6.71484C2.84069 6.61681 2.83998 6.30053 3.0625 6.20215L14.543 1.14258Z" stroke="black" stroke-width="2"/>
<path d="M2.1766 10.2097C2.17655 10.006 2.38669 9.87055 2.57211 9.95483L12.9305 14.6628C13.0303 14.7082 13.0954 14.8081 13.0955 14.9177L13.0985 27.3738C13.0985 27.5774 12.8883 27.7127 12.703 27.6287L2.34359 22.9197C2.24392 22.8743 2.17974 22.7753 2.17953 22.6658L2.1766 10.2097Z" stroke="black" stroke-width="2"/>
<mask id="path-3-inside-1_35_210" fill="white">
<path d="M26.4544 9.04199C27.3018 8.65872 28.2622 9.27894 28.262 10.209L28.259 22.667C28.2589 23.1696 27.9641 23.6258 27.5061 23.833L17.0872 28.5469C16.2399 28.9302 15.2796 28.3108 15.2796 27.3809V14.9229C15.2796 14.4201 15.5735 13.9641 16.0315 13.7568L26.4544 9.04199Z"/>
</mask>
<path d="M26.4544 9.04199L25.6302 7.21972L25.6301 7.21976L26.4544 9.04199ZM28.262 10.209L26.262 10.2084V10.2085L28.262 10.209ZM28.259 22.667L30.259 22.6675V22.6675L28.259 22.667ZM27.5061 23.833L28.3305 25.6552L28.3306 25.6552L27.5061 23.833ZM17.0872 28.5469L16.2628 26.7247L16.2627 26.7247L17.0872 28.5469ZM16.0315 13.7568L15.2072 11.9346L15.2069 11.9347L16.0315 13.7568ZM26.4544 9.04199L27.2786 10.8643C26.8012 11.0802 26.2618 10.7308 26.262 10.2084L28.262 10.209L30.262 10.2095C30.2626 7.82707 27.8023 6.23725 25.6302 7.21972L26.4544 9.04199ZM28.262 10.209L26.262 10.2085L26.259 22.6665L28.259 22.667L30.259 22.6675L30.262 10.2095L28.262 10.209ZM28.259 22.667L26.259 22.6665C26.2591 22.3825 26.4253 22.1269 26.6817 22.0108L27.5061 23.833L28.3306 25.6552C29.5029 25.1248 30.2587 23.9568 30.259 22.6675L28.259 22.667ZM27.5061 23.833L26.6817 22.0108L16.2628 26.7247L17.0872 28.5469L17.9116 30.3691L28.3305 25.6552L27.5061 23.833ZM17.0872 28.5469L16.2627 26.7247C16.739 26.5092 17.2796 26.8574 17.2796 27.3809H15.2796H13.2796C13.2796 29.7643 15.7408 31.3512 17.9116 30.369L17.0872 28.5469ZM15.2796 27.3809H17.2796V14.9229H15.2796H13.2796V27.3809H15.2796ZM15.2796 14.9229H17.2796C17.2796 15.205 17.1143 15.4621 16.8561 15.5789L16.0315 13.7568L15.2069 11.9347C14.0328 12.4661 13.2796 13.6352 13.2796 14.9229H15.2796ZM16.0315 13.7568L16.8558 15.5791L27.2787 10.8642L26.4544 9.04199L25.6301 7.21976L15.2072 11.9346L16.0315 13.7568Z" fill="black" mask="url(#path-3-inside-1_35_210)"/>
</svg>
