<svg width="9" height="14" viewBox="0 0 9 14" fill="none" xmlns="http://www.w3.org/2000/svg">
<path fill-rule="evenodd" clip-rule="evenodd" d="M0.415589 0.405643C0.149511 0.665454 3.62396e-05 1.01779 3.62396e-05 1.38516C3.62396e-05 1.75253 0.149511 2.10487 0.415589 2.36468L5.08936 6.92698L0.415589 11.4893C0.157052 11.7506 0.0139942 12.1006 0.0172272 12.4638C0.0204611 12.8271 0.169728 13.1746 0.432878 13.4314C0.696029 13.6883 1.05201 13.834 1.42415 13.8372C1.79628 13.8403 2.1548 13.7007 2.42249 13.4483L8.09971 7.9065C8.36578 7.64669 8.51526 7.29436 8.51526 6.92698C8.51526 6.55961 8.36578 6.20728 8.09971 5.94747L2.42249 0.405643C2.15633 0.14591 1.79539 0 1.41904 0C1.04269 0 0.681748 0.14591 0.415589 0.405643Z" fill="white"/>
</svg>
